# xmcd
#
# Track frame offsets:
#	150
#	19603
#	35085
#	54601
#	73368
#	92747
#	112574
#	132274
#	149402
#
# Disc length: 2242 seconds
#
# Revision: 0
# Processed by: cddbd v1.5.1PL0 Copyright (c) Steve Scherf et al.
# Submitted via: dBpowerAMP V4.0
#
DISCID=7d08c009
DTITLE=Monica - After the Storm
DYEAR=1900
DGENRE=
TTITLE0=after the storm
TTITLE1=set it off
TTITLE2=so gone
TTITLE3=shoulda known betta
TTITLE4=gotta go home
TTITLE5=knock knock
TTITLE6=u deserve
TTITLE7=breaks my heart
TTITLE8=u deserve
EXTD=monica
EXTT0=
EXTT1=
EXTT2=
EXTT3=
EXTT4=
EXTT5=
EXTT6=
EXTT7=
EXTT8=
PLAYORDER=
